<mxfile host="app.diagrams.net" agent="Mozilla/5.0 (Windows NT 10.0; Win64; x64; rv:142.0) Gecko/20100101 Firefox/142.0" version="28.2.0">
  <diagram name="Page-1" id="gZvxfI6NJ-wxfVblhHgJ">
    <mxGraphModel dx="2568" dy="1569" grid="1" gridSize="10" guides="1" tooltips="1" connect="1" arrows="1" fold="1" page="1" pageScale="1" pageWidth="850" pageHeight="1100" math="0" shadow="0">
      <root>
        <mxCell id="0" />
        <mxCell id="1" parent="0" />
        <mxCell id="fXK-mJlPSGAww4A-CZYI-4" value="" style="rounded=0;whiteSpace=wrap;html=1;rotation=-90;" vertex="1" parent="1">
          <mxGeometry x="-1565" y="-850" width="595" height="330" as="geometry" />
        </mxCell>
        <mxCell id="fXK-mJlPSGAww4A-CZYI-22" style="edgeStyle=orthogonalEdgeStyle;rounded=0;orthogonalLoop=1;jettySize=auto;html=1;exitX=1;exitY=0.5;exitDx=0;exitDy=0;" edge="1" parent="1" source="fXK-mJlPSGAww4A-CZYI-5" target="fXK-mJlPSGAww4A-CZYI-17">
          <mxGeometry relative="1" as="geometry" />
        </mxCell>
        <mxCell id="fXK-mJlPSGAww4A-CZYI-23" style="edgeStyle=orthogonalEdgeStyle;rounded=0;orthogonalLoop=1;jettySize=auto;html=1;exitX=1;exitY=0.5;exitDx=0;exitDy=0;entryX=0;entryY=0.5;entryDx=0;entryDy=0;" edge="1" parent="1" source="fXK-mJlPSGAww4A-CZYI-5" target="fXK-mJlPSGAww4A-CZYI-20">
          <mxGeometry relative="1" as="geometry" />
        </mxCell>
        <mxCell id="fXK-mJlPSGAww4A-CZYI-24" style="edgeStyle=orthogonalEdgeStyle;rounded=0;orthogonalLoop=1;jettySize=auto;html=1;exitX=1;exitY=0.5;exitDx=0;exitDy=0;entryX=0;entryY=0.5;entryDx=0;entryDy=0;" edge="1" parent="1" source="fXK-mJlPSGAww4A-CZYI-5" target="fXK-mJlPSGAww4A-CZYI-12">
          <mxGeometry relative="1" as="geometry" />
        </mxCell>
        <mxCell id="fXK-mJlPSGAww4A-CZYI-5" value="&lt;div&gt;Admin&lt;/div&gt;" style="ellipse;whiteSpace=wrap;html=1;aspect=fixed;" vertex="1" parent="1">
          <mxGeometry x="-1640" y="-730" width="90" height="90" as="geometry" />
        </mxCell>
        <mxCell id="fXK-mJlPSGAww4A-CZYI-12" value="&lt;div&gt;Verify Vendor Data&lt;/div&gt;" style="rounded=1;whiteSpace=wrap;html=1;" vertex="1" parent="1">
          <mxGeometry x="-1395" y="-800" width="120" height="60" as="geometry" />
        </mxCell>
        <mxCell id="fXK-mJlPSGAww4A-CZYI-17" value="&lt;div&gt;Manage Issues&lt;/div&gt;" style="rounded=1;whiteSpace=wrap;html=1;" vertex="1" parent="1">
          <mxGeometry x="-1395" y="-715" width="120" height="60" as="geometry" />
        </mxCell>
        <mxCell id="fXK-mJlPSGAww4A-CZYI-20" value="&lt;div&gt;Update the Database&lt;/div&gt;" style="rounded=1;whiteSpace=wrap;html=1;" vertex="1" parent="1">
          <mxGeometry x="-1395" y="-627.5" width="120" height="60" as="geometry" />
        </mxCell>
        <mxCell id="fXK-mJlPSGAww4A-CZYI-28" value="&lt;div&gt;Request Service&lt;/div&gt;" style="rounded=1;whiteSpace=wrap;html=1;" vertex="1" parent="1">
          <mxGeometry x="-1250" y="-960" width="120" height="60" as="geometry" />
        </mxCell>
        <mxCell id="fXK-mJlPSGAww4A-CZYI-29" value="Payment" style="rounded=1;whiteSpace=wrap;html=1;" vertex="1" parent="1">
          <mxGeometry x="-1250" y="-880" width="120" height="60" as="geometry" />
        </mxCell>
        <mxCell id="fXK-mJlPSGAww4A-CZYI-30" value="&lt;div&gt;Update Agent Details&lt;/div&gt;" style="rounded=1;whiteSpace=wrap;html=1;" vertex="1" parent="1">
          <mxGeometry x="-1250" y="-715" width="120" height="60" as="geometry" />
        </mxCell>
        <mxCell id="fXK-mJlPSGAww4A-CZYI-31" value="&lt;div&gt;Accept Request&lt;/div&gt;" style="rounded=1;whiteSpace=wrap;html=1;" vertex="1" parent="1">
          <mxGeometry x="-1250" y="-800" width="120" height="60" as="geometry" />
        </mxCell>
        <mxCell id="fXK-mJlPSGAww4A-CZYI-32" value="Request DB Update" style="rounded=1;whiteSpace=wrap;html=1;" vertex="1" parent="1">
          <mxGeometry x="-1250" y="-627" width="120" height="60" as="geometry" />
        </mxCell>
        <mxCell id="fXK-mJlPSGAww4A-CZYI-33" value="Request DB update" style="rounded=1;whiteSpace=wrap;html=1;" vertex="1" parent="1">
          <mxGeometry x="-1250" y="-550" width="120" height="60" as="geometry" />
        </mxCell>
        <mxCell id="fXK-mJlPSGAww4A-CZYI-34" value="Accept Storage Requests" style="rounded=1;whiteSpace=wrap;html=1;" vertex="1" parent="1">
          <mxGeometry x="-1250" y="-470" width="120" height="60" as="geometry" />
        </mxCell>
        <mxCell id="fXK-mJlPSGAww4A-CZYI-37" style="edgeStyle=orthogonalEdgeStyle;rounded=0;orthogonalLoop=1;jettySize=auto;html=1;exitX=0;exitY=0.5;exitDx=0;exitDy=0;" edge="1" parent="1" source="fXK-mJlPSGAww4A-CZYI-36" target="fXK-mJlPSGAww4A-CZYI-28">
          <mxGeometry relative="1" as="geometry" />
        </mxCell>
        <mxCell id="fXK-mJlPSGAww4A-CZYI-38" style="edgeStyle=orthogonalEdgeStyle;rounded=0;orthogonalLoop=1;jettySize=auto;html=1;exitX=0;exitY=0.5;exitDx=0;exitDy=0;entryX=1;entryY=0.25;entryDx=0;entryDy=0;" edge="1" parent="1" source="fXK-mJlPSGAww4A-CZYI-36" target="fXK-mJlPSGAww4A-CZYI-29">
          <mxGeometry relative="1" as="geometry" />
        </mxCell>
        <mxCell id="fXK-mJlPSGAww4A-CZYI-36" value="User" style="ellipse;whiteSpace=wrap;html=1;aspect=fixed;" vertex="1" parent="1">
          <mxGeometry x="-1015" y="-940" width="90" height="90" as="geometry" />
        </mxCell>
        <mxCell id="fXK-mJlPSGAww4A-CZYI-40" style="edgeStyle=orthogonalEdgeStyle;rounded=0;orthogonalLoop=1;jettySize=auto;html=1;exitX=0;exitY=0.5;exitDx=0;exitDy=0;entryX=1;entryY=0.5;entryDx=0;entryDy=0;" edge="1" parent="1" source="fXK-mJlPSGAww4A-CZYI-39" target="fXK-mJlPSGAww4A-CZYI-31">
          <mxGeometry relative="1" as="geometry" />
        </mxCell>
        <mxCell id="fXK-mJlPSGAww4A-CZYI-41" style="edgeStyle=orthogonalEdgeStyle;rounded=0;orthogonalLoop=1;jettySize=auto;html=1;exitX=0;exitY=0.5;exitDx=0;exitDy=0;entryX=1;entryY=0.5;entryDx=0;entryDy=0;" edge="1" parent="1" source="fXK-mJlPSGAww4A-CZYI-39" target="fXK-mJlPSGAww4A-CZYI-30">
          <mxGeometry relative="1" as="geometry" />
        </mxCell>
        <mxCell id="fXK-mJlPSGAww4A-CZYI-39" value="&lt;div&gt;Delivery&lt;/div&gt;&lt;div&gt;Agent&lt;/div&gt;" style="ellipse;whiteSpace=wrap;html=1;aspect=fixed;" vertex="1" parent="1">
          <mxGeometry x="-1010" y="-760" width="80" height="80" as="geometry" />
        </mxCell>
        <mxCell id="fXK-mJlPSGAww4A-CZYI-49" style="edgeStyle=orthogonalEdgeStyle;rounded=0;orthogonalLoop=1;jettySize=auto;html=1;exitX=0;exitY=0.5;exitDx=0;exitDy=0;entryX=1;entryY=0.5;entryDx=0;entryDy=0;" edge="1" parent="1" source="fXK-mJlPSGAww4A-CZYI-43" target="fXK-mJlPSGAww4A-CZYI-33">
          <mxGeometry relative="1" as="geometry" />
        </mxCell>
        <mxCell id="fXK-mJlPSGAww4A-CZYI-50" style="edgeStyle=orthogonalEdgeStyle;rounded=0;orthogonalLoop=1;jettySize=auto;html=1;exitX=0;exitY=0.5;exitDx=0;exitDy=0;entryX=1;entryY=0.5;entryDx=0;entryDy=0;" edge="1" parent="1" source="fXK-mJlPSGAww4A-CZYI-43" target="fXK-mJlPSGAww4A-CZYI-32">
          <mxGeometry relative="1" as="geometry" />
        </mxCell>
        <mxCell id="fXK-mJlPSGAww4A-CZYI-51" style="edgeStyle=orthogonalEdgeStyle;rounded=0;orthogonalLoop=1;jettySize=auto;html=1;exitX=0;exitY=0.5;exitDx=0;exitDy=0;entryX=1;entryY=0.5;entryDx=0;entryDy=0;" edge="1" parent="1" source="fXK-mJlPSGAww4A-CZYI-43" target="fXK-mJlPSGAww4A-CZYI-34">
          <mxGeometry relative="1" as="geometry" />
        </mxCell>
        <mxCell id="fXK-mJlPSGAww4A-CZYI-43" value="&lt;div&gt;Warehouse&lt;/div&gt;&lt;div&gt;and&lt;/div&gt;&lt;div&gt;Retailers&lt;/div&gt;" style="ellipse;whiteSpace=wrap;html=1;aspect=fixed;" vertex="1" parent="1">
          <mxGeometry x="-1010" y="-560" width="80" height="80" as="geometry" />
        </mxCell>
        <mxCell id="fXK-mJlPSGAww4A-CZYI-54" value="Use Case Diagram" style="rounded=0;whiteSpace=wrap;html=1;" vertex="1" parent="1">
          <mxGeometry x="-1432.5" y="-1040" width="330" height="60" as="geometry" />
        </mxCell>
      </root>
    </mxGraphModel>
  </diagram>
</mxfile>
